<svg aria-hidden="true" style="position: absolute; width: 0; height: 0; overflow: hidden;" version="1.1" xmlns="http://www.w3.org/2000/svg" xmlns:xlink="http://www.w3.org/1999/xlink">
<defs>
<symbol id="icon-new" viewBox="0 0 27 32">
<path d="M0 11.485c2.009 0 3.998 0.396 5.854 1.164s3.542 1.896 4.963 3.316c1.421 1.421 2.547 3.107 3.316 4.963s1.164 3.845 1.164 5.854h-5.329c0-1.309-0.258-2.605-0.759-3.815s-1.235-2.308-2.161-3.234c-0.926-0.926-2.025-1.66-3.234-2.161s-2.506-0.759-3.815-0.759v-5.329z"></path>
<path d="M25.333 11.485c-2.009 0-3.998 0.396-5.854 1.164s-3.542 1.896-4.963 3.316c-1.421 1.421-2.547 3.107-3.316 4.963s-1.164 3.845-1.164 5.854h5.329c0-1.309 0.258-2.605 0.759-3.815s1.235-2.308 2.161-3.234c0.926-0.926 2.025-1.66 3.234-2.161s2.506-0.759 3.815-0.759v-5.329z"></path>
<path d="M18.171 8.058c0 3.042-2.466 5.507-5.507 5.507s-5.507-2.466-5.507-5.507c0-3.042 2.466-5.507 5.507-5.507s5.507 2.466 5.507 5.507z"></path>
</symbol>
<symbol id="icon-Frame-44-1" viewBox="0 0 32 32">
<path d="M16 0c8.837 0 16 7.163 16 16s-7.163 16-16 16c-8.837 0-16-7.163-16-16s7.163-16 16-16z"></path>
<path d="M13.029 18.331l4.389-4.389h-3.931v-0.914h5.486v5.486h-0.914v-3.931l-4.389 4.389-0.64-0.64z"></path>
</symbol>
<symbol id="icon-Frame-44" viewBox="0 0 32 32">
<path fill="#0b1a27" style="fill: var(--color1, #0b1a27)" d="M16 0c8.837 0 16 7.163 16 16s-7.163 16-16 16c-8.837 0-16-7.163-16-16s7.163-16 16-16z"></path>
<path fill="#fff" style="fill: var(--color2, #fff)" d="M13.029 18.331l4.389-4.389h-3.931v-0.914h5.486v5.486h-0.914v-3.931l-4.389 4.389-0.64-0.64z"></path>
</symbol>
</defs>
</svg>
