<svg aria-hidden="true" style="position: absolute; width: 0; height: 0; overflow: hidden;" version="1.1" xmlns="http://www.w3.org/2000/svg" xmlns:xlink="http://www.w3.org/1999/xlink">
<defs>
<symbol id="icon-new" viewBox="0 0 27 32">
<path d="M0 11.485c2.009 0 3.998 0.396 5.854 1.164s3.542 1.896 4.963 3.316c1.421 1.421 2.547 3.107 3.316 4.963s1.164 3.845 1.164 5.854h-5.329c0-1.309-0.258-2.605-0.759-3.815s-1.235-2.308-2.161-3.234c-0.926-0.926-2.025-1.66-3.234-2.161s-2.506-0.759-3.815-0.759v-5.329z"></path>
<path d="M25.333 11.485c-2.009 0-3.998 0.396-5.854 1.164s-3.542 1.896-4.963 3.316c-1.421 1.421-2.547 3.107-3.316 4.963s-1.164 3.845-1.164 5.854h5.329c0-1.309 0.258-2.605 0.759-3.815s1.235-2.308 2.161-3.234c0.926-0.926 2.025-1.66 3.234-2.161s2.506-0.759 3.815-0.759v-5.329z"></path>
<path d="M18.171 8.058c0 3.042-2.466 5.507-5.507 5.507s-5.507-2.466-5.507-5.507c0-3.042 2.466-5.507 5.507-5.507s5.507 2.466 5.507 5.507z"></path>
</symbol>
<symbol id="icon-Frame-44-1" viewBox="0 0 32 32">
<path d="M16 0c8.837 0 16 7.163 16 16s-7.163 16-16 16c-8.837 0-16-7.163-16-16s7.163-16 16-16z"></path>
<path d="M13.029 18.331l4.389-4.389h-3.931v-0.914h5.486v5.486h-0.914v-3.931l-4.389 4.389-0.64-0.64z"></path>
</symbol>
<symbol id="icon-Frame-44" viewBox="0 0 32 32">
<path fill="#0b1a27" style="fill: var(--color1, #0b1a27)" d="M16 0c8.837 0 16 7.163 16 16s-7.163 16-16 16c-8.837 0-16-7.163-16-16s7.163-16 16-16z"></path>
<path fill="#fff" style="fill: var(--color2, #fff)" d="M13.029 18.331l4.389-4.389h-3.931v-0.914h5.486v5.486h-0.914v-3.931l-4.389 4.389-0.64-0.64z"></path>
</symbol>
<symbol id="icon-Vector" viewBox="0 0 37 32">
<path d="M3.429 27.657l21.943-21.943h-19.657v-4.571h27.429v27.429h-4.571v-19.657l-21.943 21.943-3.2-3.2z"></path>
</symbol>
<symbol id="icon-mob" viewBox="0 0 32 32">
<path fill="#016bff" style="fill: var(--color1, #016bff)" d="M1.6 0.8h28.8c0.442 0 0.8 0.358 0.8 0.8v28.8c0 0.442-0.358 0.8-0.8 0.8h-28.8c-0.442 0-0.8-0.358-0.8-0.8v-28.8c0-0.442 0.358-0.8 0.8-0.8z"></path>
<path fill="none" stroke="#f3f3f3" style="stroke: var(--color2, #f3f3f3)" stroke-linejoin="miter" stroke-linecap="butt" stroke-miterlimit="4" stroke-width="0.5333" d="M1.6 0.8h28.8c0.442 0 0.8 0.358 0.8 0.8v28.8c0 0.442-0.358 0.8-0.8 0.8h-28.8c-0.442 0-0.8-0.358-0.8-0.8v-28.8c0-0.442 0.358-0.8 0.8-0.8z"></path>
<path fill="none" stroke="#fff" style="stroke: var(--color3, #fff)" stroke-linejoin="miter" stroke-linecap="butt" stroke-miterlimit="4" stroke-width="0.5333" d="M11.85 11.475l8.674 8.674"></path>
<path fill="none" stroke="#fff" style="stroke: var(--color3, #fff)" stroke-linejoin="miter" stroke-linecap="butt" stroke-miterlimit="4" stroke-width="0.5333" d="M20.527 11.852l-8.674 8.674"></path>
</symbol>
<symbol id="icon-Polygon-2" viewBox="0 0 20 32">
<path d="M20.364 16l-20.364 14.545v-29.091l20.364 14.545z"></path>
</symbol>
<symbol id="icon-Vector-1" viewBox="0 0 32 32">
<path d="M0 28.554l23.631-23.631h-21.169v-4.923h29.538v29.538h-4.923v-21.169l-23.631 23.631-3.446-3.446z"></path>
</symbol>
</defs>
</svg>
